# xmcd
#
# Track frame offsets:
#	150
#	11572
#	21993
#	37375
#	50633
#	59912
#	73389
#	86227
#	99244
#	112890
#	124914
#	138273
#	151844
#	164944
#	178635
#	189101
#	200270
#	212139
#	224459
#	235134
#	247873
#	260629
#	269978
#	280615
#
# Disc length: 3927 seconds
#
# Revision: 1
# Processed by: cddbd v1.5.2PL0 Copyright (c) Steve Scherf et al.
# Submitted via: audiograbber 1.83.01
#
DISCID=770f5518
DTITLE=Various Artist - Griddle  Greasin' Daddies and Dirty Cowboys
DYEAR=1900
DGENRE=
TTITLE0=Billy Hughes - Take Your Hands Off It (The Birthday Cake Song)
TTITLE1=Eddie Miller - Motel Time
TTITLE2=Roy Lee Brown - Ice Man Song
TTITLE3=Billy Casteel - Hollywood Mama
TTITLE4=Bucky Bates - Who Winds Your Clock
TTITLE5=Homer Zeke Clemons - Sell the Coldest Stuff In Town
TTITLE6=Hank Penny - Let Me Play With Your Poodle
TTITLE7=T. Texas Tyler - I Want To Learn To Do It
TTITLE8=Kinsey's Book - Charlie Aldrich
TTITLE9=The Nov-Elettes - Butcher Shop Blues
TTITLE10=Buffalo Johnson - 'Tain't Big Enough
TTITLE11=Doyle Franklin - If the Blues Don't Kill Me
TTITLE12=Homer Clemons - Operation Blues
TTITLE13=Hank Penny - The Freckle Song
TTITLE14=Jimmie Ballard - Chicken Plucker
TTITLE15=York Brothers - Sixty Minute Man
TTITLE16=Randy Hughes - Tappin' That Thing
TTITLE17=Betty Coral - Chilli Dippin' Baby
TTITLE18=Eddie Miller - I Like What You Got
TTITLE19=Jimmie Ballard - She's Got Something
TTITLE20=Skeets McDonald - The Tattooed Lady
TTITLE21=Cotton Henry - Eskimo Nell
TTITLE22=Johnny Buckett - Griddle Greasin' Daddy
TTITLE23=Jimmie Ballard's Hillbilly Swingmasters - Birthday Cake Boogie
EXTD=
EXTT0=
EXTT1=
EXTT2=
EXTT3=
EXTT4=
EXTT5=
EXTT6=
EXTT7=
EXTT8=
EXTT9=
EXTT10=
EXTT11=
EXTT12=
EXTT13=
EXTT14=
EXTT15=
EXTT16=
EXTT17=
EXTT18=
EXTT19=
EXTT20=
EXTT21=
EXTT22=
EXTT23=
PLAYORDER=
